<?xml version="1.0" ?><svg style="enable-background:new 0 0 32 32;" version="1.1" viewBox="0 0 32 32" xml:space="preserve" xmlns="http://www.w3.org/2000/svg" xmlns:xlink="http://www.w3.org/1999/xlink"><style type="text/css">
	.st0{display:none;}
	.st1{fill:none;}
</style><g class="st0" id="grid"/><g id="Layer_2"><path d="M30.11,5.16c-0.54-0.27-1.18-0.2-1.65,0.17L25.4,7.69l-9.4,6.77L6.59,7.53L5.85,7H26V5H3v0.07   c-0.36-0.1-0.75-0.08-1.11,0.09C1.34,5.43,1,5.98,1,6.6V25.4C1,26.28,1.71,27,2.58,27H7V15.47l9,6.62l9-6.62V25H9v2h16h4h0.42   c0.87,0,1.58-0.72,1.58-1.6V6.6C31,5.98,30.66,5.43,30.11,5.16z M29,25h-2V11.52l-11,8.09L5,11.52V25H3V7.4l12.99,9.53L26.58,9.3   L29,7.44V25z"/></g></svg>